<?xml version="1.0" encoding="utf-8"?>
<!-- Generator: Adobe Illustrator 21.1.0, SVG Export Plug-In . SVG Version: 6.00 Build 0)  -->
<svg version="1.1" id="Ebene_1" xmlns="http://www.w3.org/2000/svg" xmlns:xlink="http://www.w3.org/1999/xlink" x="0px" y="0px"
	 viewBox="0 0 579 240" style="enable-background:new 0 0 579 240;" xml:space="preserve">
<style type="text/css">
	.st0{fill:#D6D6D6;}
	.st1{clip-path:url(#SVGID_2_);}
	.st2{clip-path:url(#SVGID_4_);}
	.st3{clip-path:url(#SVGID_6_);}
	.st4{fill:#F7931E;}
	.st5{fill:#333333;}
</style>
<g>
	<polygon class="st0" points="45,98 45,240 535,240 535,98 576,98 576,53 290,0 3,53 3,98 	"/>
</g>
<g>
	<defs>
		<rect id="SVGID_1_" width="579" height="240"/>
	</defs>
	<clipPath id="SVGID_2_">
		<use xlink:href="#SVGID_1_"  style="overflow:visible;"/>
	</clipPath>
	<g id="Bildmaterial_6" class="st1">
		<g>
			<defs>
				<rect id="SVGID_3_" x="-104" y="5" width="794" height="262.9"/>
			</defs>
			<clipPath id="SVGID_4_">
				<use xlink:href="#SVGID_3_"  style="overflow:visible;"/>
			</clipPath>
			<g class="st2">
				<defs>
					<rect id="SVGID_5_" x="-104" y="5" width="794" height="262.9"/>
				</defs>
				<clipPath id="SVGID_6_">
					<use xlink:href="#SVGID_5_"  style="overflow:visible;"/>
				</clipPath>
				<g class="st3">
				</g>
			</g>
			<g class="st2">
				<polygon class="st4" points="182.4,76.7 236,210.1 217,210.1 172,94.9 127,210.1 108,210.1 161.8,76.7 				"/>
			</g>
			<g class="st2">
				<polygon class="st4" points="418.4,76.7 472,210.1 453,210.1 408,94.9 363,210.1 344,210.1 397.8,76.7 				"/>
			</g>
			<g class="st2">
				<rect x="53" y="216.1" class="st5" width="474" height="16"/>
			</g>
			<g class="st2">
				<path class="st5" d="M527.8,232.9H52.2v-17.5h475.5V232.9z M53.8,231.4h472.5v-14.5H53.8V231.4z"/>
			</g>
			<g class="st2">
				<polygon class="st5" points="10,71 570,71 570,59.5 290,8.1 10,58.6 				"/>
			</g>
			<g class="st2">
				<path class="st5" d="M279.6,209.9L226,76.5h19l45,115.2l45-115.2h19l-53.8,133.4H279.6z"/>
			</g>
			<g class="st2">
				<path class="st5" d="M52.6,209.9V91.3H10.4V76.5h101.2v14.8H69.2v118.6H52.6z"/>
			</g>
			<g class="st2">
				<path class="st5" d="M69.5,210.2H52.4V91.6H10.2V76.3h101.7v15.3H69.5V210.2z M52.9,209.7H69V91.1h42.4V76.8H10.7v14.3h42.2
					V209.7z"/>
			</g>
			<g class="st2">
				<path class="st5" d="M510.6,209.9V91.3h-42.2V76.5h101.2v14.8h-42.4v118.6H510.6z"/>
			</g>
			<g class="st2">
				<path class="st5" d="M527.5,210.2h-17.1V91.6h-42.2V76.3h101.7v15.3h-42.4V210.2z M510.9,209.7H527V91.1h42.4V76.8H468.7v14.3
					h42.2V209.7z"/>
			</g>
		</g>
	</g>
</g>
</svg>
